HIERARCHY
ROOT Hips
{
	OFFSET 0.000000 0.000000 0.000000
	CHANNELS 6 Xposition Yposition Zposition Xrotation Yrotation Zrotation
	JOINT LeftUpLeg_virtual
	{
		OFFSET 0.000000 0.000000 0.000000
		CHANNELS 3 Xrotation Yrotation Zrotation
		JOINT LeftUpLeg
		{
			OFFSET 13.026900 -6.336304 -1.092800
			CHANNELS 3 Xrotation Yrotation Zrotation
			JOINT LeftLeg
			{
				OFFSET 0.524474 -46.096886 9.782700
				CHANNELS 3 Xrotation Yrotation Zrotation
				JOINT LeftFoot
				{
					OFFSET -0.524474 -53.427422 -12.948200
					CHANNELS 3 Xrotation Yrotation Zrotation
					JOINT LeftToeBase
					{
						OFFSET 0.192200 -14.009700 16.364100
						CHANNELS 3 Xrotation Yrotation Zrotation
						JOINT LeftToe_End
						{
							OFFSET -1.784700 -0.561700 9.474800
							CHANNELS 3 Xrotation Yrotation Zrotation
							End Site
							{
								OFFSET 0 0 0
							}
						}
					}
				}
			}
		}
	}
	JOINT RightUpLeg_virtual
	{
		OFFSET 0.000000 0.000000 0.000000
		CHANNELS 3 Xrotation Yrotation Zrotation
		JOINT RightUpLeg
		{
			OFFSET -12.883000 -6.336304 -1.092800
			CHANNELS 3 Xrotation Yrotation Zrotation
			JOINT RightLeg
			{
				OFFSET -0.524587 -46.096825 9.782800
				CHANNELS 3 Xrotation Yrotation Zrotation
				JOINT RightFoot
				{
					OFFSET 0.524587 -53.427383 -12.948300
					CHANNELS 3 Xrotation Yrotation Zrotation
					JOINT RightToeBase
					{
						OFFSET -0.192200 -14.009700 16.364100
						CHANNELS 3 Xrotation Yrotation Zrotation
						JOINT RightToe_End
						{
							OFFSET 1.784700 -0.561700 9.474800
							CHANNELS 3 Xrotation Yrotation Zrotation
							End Site
							{
								OFFSET 0 0 0
							}
						}
					}
				}
			}
		}
	}
	JOINT Spine_virtual
	{
		OFFSET 0.000000 0.000000 0.000000
		CHANNELS 3 Xrotation Yrotation Zrotation
		JOINT Spine
		{
			OFFSET 0.072000 7.257294 -0.789700
			CHANNELS 3 Xrotation Yrotation Zrotation
			JOINT Spine1
			{
				OFFSET 0.000000 12.508769 -0.658067
				CHANNELS 3 Xrotation Yrotation Zrotation
				JOINT Spine1_split
				{
					OFFSET 0.000000 12.508769 -0.658067
					CHANNELS 3 Xrotation Yrotation Zrotation
					JOINT Spine2
					{
						OFFSET 0.000000 12.508769 -0.658067
						CHANNELS 3 Xrotation Yrotation Zrotation
						JOINT Neck_virtual
						{
							OFFSET 0.000000 0.000000 0.000000
							CHANNELS 3 Xrotation Yrotation Zrotation
							JOINT Neck
							{
								OFFSET 0.000000 14.033295 7.520400
								CHANNELS 3 Xrotation Yrotation Zrotation
								JOINT Head
								{
									OFFSET 0.000000 8.198502 5.703100
									CHANNELS 3 Xrotation Yrotation Zrotation
									JOINT HeadTop_End
									{
										OFFSET 0.000000 17.760803 13.332701
										CHANNELS 3 Xrotation Yrotation Zrotation
										End Site
										{
											OFFSET 0 0 0
										}
									}
								}
							}
						}
						JOINT LeftShoulder_virtual
						{
							OFFSET 0.000000 0.000000 0.000000
							CHANNELS 3 Xrotation Yrotation Zrotation
							JOINT LeftShoulder
							{
								OFFSET 6.292450 5.785301 -0.669000
								CHANNELS 3 Xrotation Yrotation Zrotation
								JOINT LeftShoulder_split
								{
									OFFSET 6.292450 5.785301 -0.669000
									CHANNELS 3 Xrotation Yrotation Zrotation
									JOINT LeftArm
									{
										OFFSET 13.907140 -6.093903 1.965100
										CHANNELS 3 Xrotation Yrotation Zrotation
										JOINT LeftForeArm
										{
											OFFSET 34.140198 0.000000 0.000000
											CHANNELS 3 Xrotation Yrotation Zrotation
											JOINT LeftHand
											{
												OFFSET 40.960209 0.000000 0.000000
												CHANNELS 3 Xrotation Yrotation Zrotation
												End Site
												{
													OFFSET 0 0 0
												}
											}
										}
									}
								}
							}
						}
						JOINT RightShoulder_virtual
						{
							OFFSET 0.000000 0.000000 0.000000
							CHANNELS 3 Xrotation Yrotation Zrotation
							JOINT RightShoulder
							{
								OFFSET -6.292450 5.785301 -0.669000
								CHANNELS 3 Xrotation Yrotation Zrotation
								JOINT RightShoulder_split
								{
									OFFSET -6.292450 5.785301 -0.669000
									CHANNELS 3 Xrotation Yrotation Zrotation
									JOINT RightArm
									{
										OFFSET -13.907140 -6.093903 1.965100
										CHANNELS 3 Xrotation Yrotation Zrotation
										JOINT RightForeArm
										{
											OFFSET -34.140198 0.000000 0.000000
											CHANNELS 3 Xrotation Yrotation Zrotation
											JOINT RightHand
											{
												OFFSET -40.960209 0.000000 0.000000
												CHANNELS 3 Xrotation Yrotation Zrotation
												End Site
												{
													OFFSET 0 0 0
												}
											}
										}
									}
								}
							}
						}
					}
				}
			}
		}
	}
}
MOTION
Frames: 7
Frame Time: 0.03333333
-2.905955 90.505905 -9.620228 0.000000 0.000000 0.000000 -1.769047 -34.604149 3.931571 -27.090900 -1.856862 9.937856 51.810847 -0.556149 2.366123 -19.794160 6.464978 -15.657536 2.248959 -1.489309 -5.291097 0.000000 0.000000 0.000000 -1.774314 -35.579302 4.259387 -34.037780 -17.528630 -29.638547 60.084990 12.085703 -7.316070 -17.976351 -24.138285 33.321180 4.778797 8.518474 -14.810913 0.000000 0.000000 0.000000 -1.463907 -29.851007 2.238791 11.505681 2.934288 -2.463252 -2.150579 -1.046448 -1.704867 -0.033129 -0.208429 0.259206 0.000000 0.000000 0.000000 1.390978 1.409706 -0.126442 12.622476 11.312111 -1.235345 -16.252240 10.169504 -3.213912 0.000000 0.000000 0.000000 2.561649 -0.405454 -0.595894 1.490182 6.890977 -2.069040 -1.366102 -10.774670 -2.932787 -60.913007 -2.008475 -48.933381 -155.667265 -84.649280 -156.784575 0.000000 0.000000 0.000000 1.830962 -1.041561 -0.548951 -0.426570 9.612182 -4.394006 -0.531752 -4.748134 4.051195 -53.655244 29.121761 85.086501 -105.647604 77.029753 108.957035 0.000000 0.000000 0.000000 
-2.546054 89.740799 -8.333073 0.000000 0.000000 0.000000 -2.461919 -36.814064 3.703613 -28.527224 -2.457834 10.323970 53.145193 0.100763 1.569056 -18.933151 7.910329 -15.661549 2.410409 -1.339099 -6.158443 0.000000 0.000000 0.000000 -2.105606 -37.126801 4.123758 -34.000975 -17.111538 -29.952476 62.651194 12.384257 -7.795263 -19.581795 -24.314932 32.442951 7.595984 8.075213 -14.754732 0.000000 0.000000 0.000000 -1.714791 -30.861342 2.167878 12.012201 3.244668 -2.583628 -1.756075 -0.976298 -1.671800 -0.003179 -0.203364 0.290544 0.000000 0.000000 0.000000 1.320789 1.311210 0.004631 12.241429 11.409570 -0.618776 -17.001203 10.918389 -4.238519 0.000000 0.000000 0.000000 2.218431 -0.259537 -0.603581 1.136082 7.041047 -2.590720 -0.170316 -12.868228 -0.827029 -62.035412 -1.557108 -48.552147 -165.825382 -85.474934 -167.399754 0.000000 0.000000 0.000000 1.820850 -1.006296 -0.577056 -0.559130 9.934166 -4.384832 1.228791 -4.087285 4.324121 -54.042953 30.727621 85.377549 -113.645195 76.366870 117.253612 0.000000 0.000000 0.000000 
-2.016419 87.549995 -6.317303 0.000000 0.000000 0.000000 -3.087592 -39.239956 3.328338 -32.189872 -3.346484 11.892853 58.193342 -1.255508 0.786670 -17.196497 7.430463 -16.748775 2.667191 -1.441858 -6.870935 0.000000 0.000000 0.000000 -2.240915 -38.983434 3.995192 -34.394787 -16.307543 -30.767318 65.631650 13.147970 -8.866300 -20.531274 -24.596985 32.990336 7.318253 7.953740 -14.396970 0.000000 0.000000 0.000000 -1.925818 -32.992758 2.125020 12.950651 4.117711 -2.215363 -1.309548 -0.760432 -1.625905 -0.021152 -0.109231 0.229454 0.000000 0.000000 0.000000 1.410273 1.312049 0.167155 11.697823 11.883798 -0.111030 -18.066636 13.187889 -5.948089 0.000000 0.000000 0.000000 1.905925 -0.088041 -0.555726 0.893269 6.467588 -3.601172 1.230894 -13.217055 1.060619 -63.242969 -0.469174 -47.470170 -175.695633 -86.633436 -178.198037 0.000000 0.000000 0.000000 1.608832 -0.922529 -0.498335 -0.713335 10.621413 -4.548880 1.330277 -3.493288 4.075173 -52.215475 31.569920 84.220440 -122.950194 74.981803 126.501251 0.000000 0.000000 0.000000 
-1.389059 84.200867 -3.732033 0.000000 0.000000 0.000000 -3.533655 -41.528100 3.007798 -37.510709 -4.540901 14.534567 65.917452 -4.802258 0.769227 -14.152353 4.842819 -19.330895 0.795270 -1.716762 -6.761734 0.000000 0.000000 0.000000 -2.127206 -41.000359 3.926288 -35.281141 -15.113943 -31.991763 68.214131 14.351959 -10.335704 -20.717195 -24.833625 34.624322 4.301845 8.110624 -13.931364 0.000000 0.000000 0.000000 -2.281883 -35.865549 2.020086 14.177343 5.405958 -1.507102 -0.807619 -0.401620 -1.688767 -0.006189 -0.010168 0.114306 0.000000 0.000000 0.000000 1.649948 1.470687 0.251343 10.953957 12.757258 0.283870 -19.526247 16.946804 -7.997977 0.000000 0.000000 0.000000 1.727856 0.130338 -0.576761 0.801673 5.452835 -4.817768 2.407356 -11.876559 2.173651 -63.751989 1.977821 -45.363162 176.155551 -87.144184 172.554211 0.000000 0.000000 0.000000 1.285157 -0.752157 -0.431365 -0.938875 11.588127 -4.917655 0.100111 -2.559615 3.363256 -48.553079 31.247668 81.954764 -129.318594 73.500014 132.430551 0.000000 0.000000 0.000000 
-0.530829 80.296875 -0.876270 0.000000 0.000000 0.000000 -3.594878 -43.778781 2.954498 -42.707073 -5.601058 17.821589 73.577482 -8.779233 1.442943 -11.580999 1.213640 -21.260391 -4.107542 -2.184123 -5.724393 0.000000 0.000000 0.000000 -1.730242 -43.036093 4.039871 -36.844605 -13.469434 -33.609240 70.100622 15.856757 -11.948760 -20.404065 -24.852845 36.753255 1.639088 8.250658 -13.790634 0.000000 0.000000 0.000000 -2.645990 -39.164626 2.016342 15.468946 6.727149 -0.666567 -0.305033 0.031903 -1.926133 0.037265 0.021259 0.020774 0.000000 0.000000 0.000000 2.076831 1.784244 0.154807 10.052007 13.969815 0.680391 -21.272723 21.792096 -10.097420 0.000000 0.000000 0.000000 1.695967 0.417851 -0.804670 0.798368 4.270990 -6.052453 3.344559 -10.655794 3.849429 -62.890176 6.742238 -41.784884 172.456102 -85.381367 167.719721 0.000000 0.000000 0.000000 0.999402 -0.446825 -0.475680 -1.318131 12.677397 -5.573174 -1.655057 -1.360132 2.403640 -44.102088 30.098226 79.530743 -132.379721 72.707555 134.759619 0.000000 0.000000 0.000000 
0.344639 76.638359 2.323215 0.000000 0.000000 0.000000 -3.039915 -45.791016 3.319415 -46.927607 -6.185105 21.766635 79.414063 -11.991872 2.365448 -9.792507 -1.691652 -22.429291 -9.398252 -2.773859 -4.831196 0.000000 0.000000 0.000000 -1.199606 -44.866543 4.297584 -39.202981 -11.516693 -35.676315 71.375245 17.527399 -13.394467 -19.486429 -24.595655 39.073241 1.091899 8.301897 -14.317106 0.000000 0.000000 0.000000 -2.587163 -42.283468 2.332448 16.483570 7.739000 0.111118 0.151646 0.470892 -2.272138 0.074227 -0.051314 -0.068372 0.000000 0.000000 0.000000 2.667962 2.179946 -0.114346 9.159193 15.268200 1.242461 -23.193335 27.380519 -12.014254 0.000000 0.000000 0.000000 1.735800 0.752974 -1.270846 0.832612 3.253212 -7.134628 3.771299 -9.901406 5.705671 -61.590111 13.172485 -37.710762 170.454966 -80.768408 164.574924 0.000000 0.000000 0.000000 0.930065 -0.019393 -0.638372 -1.885935 13.557599 -6.391765 -3.665911 -0.957358 1.418501 -39.947335 29.142471 78.286829 -133.216160 72.929796 134.770670 0.000000 0.000000 0.000000 
0.965912 73.781265 6.096813 0.000000 0.000000 0.000000 -1.806683 -48.191411 4.033301 -49.859698 -6.557465 25.965176 82.443559 -14.219488 3.412715 -7.919280 -2.875058 -24.111090 -13.034361 -3.274732 -4.272669 0.000000 0.000000 0.000000 -0.593871 -46.116440 4.613627 -42.266249 -9.492057 -38.386507 72.237310 19.573784 -14.587356 -17.301982 -23.555514 42.345359 2.419950 8.339857 -15.627473 0.000000 0.000000 0.000000 -2.070301 -44.786828 2.829908 16.987365 8.054980 0.700645 0.523222 0.801425 -2.531018 0.113702 -0.094384 -0.073636 0.000000 0.000000 0.000000 3.340213 2.481227 -0.439515 8.313358 16.668643 2.078329 -24.878716 33.265514 -13.818298 0.000000 0.000000 0.000000 1.817032 1.015601 -1.835454 0.795819 2.586526 -8.014274 2.901783 -9.759609 6.845390 -60.853092 19.972785 -33.851046 166.957212 -74.366021 160.152800 0.000000 0.000000 0.000000 1.190464 0.421386 -0.770489 -2.594696 13.903004 -7.190471 -5.479467 -1.500477 0.760123 -36.735961 29.373498 78.228793 -134.623602 73.651829 135.524053 0.000000 0.000000 0.000000 
